<?xml version="1.0" encoding="utf-8"?>
<svg xmlns="http://www.w3.org/2000/svg" viewBox="0 0 26 26" width="208" height="208">
  <path d="M4 0C1.800781 0 0 1.800781 0 4L0 21C0 23.199219 1.800781 25 4 25L15 25C15.398438 25 15.699219 24.90625 16 24.90625C14.601563 24.605469 13.40625 23.898438 12.40625 23L4 23C2.898438 23 2 22.101563 2 21L2 4C2 2.898438 2.898438 2 4 2L10.3125 2C11.011719 2.199219 11 3.101563 11 4L11 7C11 7.601563 11.398438 8 12 8L15 8C16 8 17 8 17 9L17 10L17.5 10C18 10 18.5 10.085938 19 10.1875L19 8C19 6.898438 18.011719 5.886719 16.3125 4.1875C16.011719 3.988281 15.800781 3.699219 15.5 3.5C15.300781 3.199219 15.011719 2.988281 14.8125 2.6875C13.113281 0.988281 12.101563 0 11 0 Z M 17.5 12C14.5 12 12 14.5 12 17.5C12 20.5 14.5 23 17.5 23C18.773438 23 19.933594 22.527344 20.875 21.78125L21.1875 22.09375C20.941406 22.480469 20.96875 22.96875 21.3125 23.3125L23.8125 25.8125C24.210938 26.210938 24.789063 26.210938 25.1875 25.8125L25.6875 25.3125C26.085938 24.914063 26.085938 24.304688 25.6875 23.90625L23.1875 21.40625C22.859375 21.078125 22.410156 21.035156 22.03125 21.25L21.75 20.9375C22.523438 19.988281 23 18.796875 23 17.5C23 14.5 20.5 12 17.5 12 Z M 17.5 13.5C19.699219 13.5 21.5 15.300781 21.5 17.5C21.5 19.699219 19.699219 21.5 17.5 21.5C15.300781 21.5 13.5 19.699219 13.5 17.5C13.5 15.300781 15.300781 13.5 17.5 13.5Z" />
</svg>