<?xml version="1.0" encoding="utf-8"?>
<svg xmlns="http://www.w3.org/2000/svg" viewBox="0 0 26 26" width="208" height="208">
  <path d="M3 0C1.300781 0 0 1.300781 0 3L0 21C0 22.699219 1.300781 24 3 24L14.90625 24C13.804688 23.601563 12.894531 22.898438 12.09375 22L3 22C2.398438 22 2 21.601563 2 21L2 4L22 4L22 12.09375C22.898438 12.792969 23.601563 13.804688 24 14.90625L24 3C24 1.300781 22.699219 0 21 0 Z M 5 8L5 10L7 10L7 8 Z M 9 8L9 10L19 10L19 8 Z M 5 12L5 14L7 14L7 12 Z M 9 12L9 14L11.40625 14C11.804688 13.199219 12.394531 12.5 13.09375 12 Z M 17.5 12C14.5 12 12 14.5 12 17.5C12 20.5 14.5 23 17.5 23C18.773438 23 19.933594 22.527344 20.875 21.78125L21.0625 21.96875C20.804688 22.355469 20.839844 22.839844 21.1875 23.1875L23.6875 25.6875C24.085938 26.085938 24.695313 26.085938 25.09375 25.6875L25.59375 25.1875C25.992188 24.789063 25.992188 24.210938 25.59375 23.8125L23.09375 21.3125C22.765625 20.984375 22.3125 20.917969 21.9375 21.125L21.75 20.9375C22.523438 19.988281 23 18.796875 23 17.5C23 14.5 20.5 12 17.5 12 Z M 17.5 13.5C19.699219 13.5 21.5 15.300781 21.5 17.5C21.5 19.699219 19.699219 21.5 17.5 21.5C15.300781 21.5 13.5 19.699219 13.5 17.5C13.5 15.300781 15.300781 13.5 17.5 13.5 Z M 5 16L5 18L7 18L7 16 Z M 9 16L9 18L10.5 18L10.5 17.5C10.5 17 10.585938 16.5 10.6875 16Z" />
</svg>