<?xml version="1.0" encoding="utf-8"?>
<svg xmlns="http://www.w3.org/2000/svg" viewBox="0 0 24 24" width="480" height="480">
  <path d="M18 0L2 0L2 20L4.464844 24L21 24L21 5.722656 Z M 10 6C11.105469 6 12 6.894531 12 8C12 9.105469 11.105469 10 10 10C8.894531 10 8 9.105469 8 8C8 6.894531 8.894531 6 10 6 Z M 8.617188 11.023438C9.027344 11.242188 9.5 11.367188 9.996094 11.367188C10.496094 11.367188 10.964844 11.242188 11.378906 11.023438C12.269531 11.257813 12.964844 11.808594 13.285156 13L6.710938 13C7.03125 11.808594 7.726563 11.257813 8.617188 11.023438 Z M 19 22L5.535156 22L4.320313 20L18 20L18 4.136719L19 6.277344Z" fill="#FFFFFF" />
</svg>