<?xml version="1.0" encoding="utf-8"?>
<svg xmlns="http://www.w3.org/2000/svg" viewBox="0 0 24 24" width="480" height="480">
  <path d="M9 0C5.6875 0 3 2.6875 3 6C3 9.3125 5.6875 12 9 12C12.3125 12 15 9.3125 15 6C15 2.6875 12.3125 0 9 0 Z M 5 8L13 8C12.261719 9.476563 10.761719 10.5 9 10.5C7.238281 10.5 5.738281 9.476563 5 8 Z M 5.53125 13.03125C3.300781 13.617188 1.550781 15.011719 0.75 18L17.25 18C16.449219 15.011719 14.703125 13.617188 12.46875 13.03125C11.4375 13.585938 10.253906 13.90625 9 13.90625C7.746094 13.90625 6.566406 13.585938 5.53125 13.03125 Z M 18.875 15L18.875 18.9375L15 18.9375L15 20.125L18.875 20.125L18.875 24L20.09375 24L20.09375 20.125L24 20.125L24 18.9375L20.09375 18.9375L20.09375 15Z" />
</svg>