<svg xmlns="http://www.w3.org/2000/svg" xmlns:xlink="http://www.w3.org/1999/xlink" width="488" zoomAndPan="magnify" viewBox="0 0 366 323.999988" height="432" preserveAspectRatio="xMidYMid meet" version="1.0"><defs><clipPath id="7c1b8f0e7e"><path d="M 251 180 L 253.863281 180 L 253.863281 183 L 251 183 Z M 251 180 " clip-rule="nonzero"/></clipPath><clipPath id="68cb48aeb3"><path d="M 251 173 L 253.863281 173 L 253.863281 181 L 251 181 Z M 251 173 " clip-rule="nonzero"/></clipPath><clipPath id="8fc3ed6fcf"><path d="M 229.863281 166.644531 L 243 166.644531 L 243 194.394531 L 229.863281 194.394531 Z M 229.863281 166.644531 " clip-rule="nonzero"/></clipPath><clipPath id="0599a8847f"><path d="M 229.863281 166.644531 L 242 166.644531 L 242 194.394531 L 229.863281 194.394531 Z M 229.863281 166.644531 " clip-rule="nonzero"/></clipPath><clipPath id="184b210551"><path d="M 230 167 L 243 167 L 243 194.394531 L 230 194.394531 Z M 230 167 " clip-rule="nonzero"/></clipPath></defs><g clip-path="url(#7c1b8f0e7e)"><path fill="#f7b2b2" d="M 253.144531 180.75 C 252.992188 181.320312 252.710938 181.75 252.3125 182.058594 L 251.582031 180.984375 L 251.957031 180.476562 L 252.160156 180.390625 L 252.359375 180.3125 Z M 253.144531 180.75 " fill-opacity="1" fill-rule="nonzero"/></g><g clip-path="url(#68cb48aeb3)"><path fill="#f1f3f2" d="M 251.488281 173.652344 C 252.453125 173.710938 253.265625 174.710938 253.378906 175.652344 C 253.378906 175.652344 253.867188 178.035156 253.757812 179.070312 C 253.710938 179.527344 253.191406 180.699219 253.191406 180.699219 C 253.074219 180.945312 252.332031 180.625 252.359375 180.3125 C 252.457031 179.335938 252.484375 178.40625 252.410156 177.539062 Z M 251.488281 173.652344 " fill-opacity="1" fill-rule="nonzero"/></g><path fill="#fc6c85" d="M 247.070312 192.464844 C 246.648438 192.703125 246.195312 192.800781 245.703125 192.683594 C 245.613281 192.664062 245.519531 192.648438 245.425781 192.644531 C 244.910156 192.636719 244.773438 192.851562 244.894531 193.230469 C 245.082031 193.6875 245.53125 193.90625 246.210938 193.914062 C 246.382812 193.914062 246.558594 193.902344 246.726562 193.867188 C 247.136719 193.78125 247.632812 193.792969 248.164062 193.84375 C 248.453125 193.871094 248.707031 193.640625 248.707031 193.347656 L 248.707031 192.550781 Z M 247.070312 192.464844 " fill-opacity="1" fill-rule="nonzero"/><path fill="#f95070" d="M 248.707031 193.347656 C 248.707031 193.644531 248.453125 193.871094 248.160156 193.84375 C 247.632812 193.796875 247.136719 193.785156 246.726562 193.867188 C 246.558594 193.902344 246.382812 193.917969 246.210938 193.914062 C 245.53125 193.90625 245.082031 193.6875 244.894531 193.230469 C 244.824219 193.007812 244.839844 192.839844 244.976562 192.742188 C 244.984375 192.792969 244.996094 192.847656 245.015625 192.910156 C 245.203125 193.367188 245.652344 193.582031 246.335938 193.589844 C 246.507812 193.59375 246.679688 193.582031 246.847656 193.546875 C 247.257812 193.460938 247.753906 193.472656 248.28125 193.523438 C 248.449219 193.539062 248.605469 193.46875 248.707031 193.347656 Z M 248.707031 193.347656 " fill-opacity="1" fill-rule="nonzero"/><path fill="#fc6c85" d="M 252.117188 190.1875 L 252.117188 191.359375 C 252.117188 191.523438 252.011719 191.667969 251.855469 191.707031 C 251.410156 191.828125 251.066406 191.664062 250.78125 191.320312 C 250.707031 191.226562 250.601562 191.15625 250.484375 191.128906 C 249.945312 190.988281 249.570312 190.703125 249.4375 190.246094 C 249.394531 190.097656 249.382812 189.9375 249.429688 189.789062 C 249.582031 189.292969 250.113281 189.515625 250.636719 190.011719 Z M 252.117188 190.1875 " fill-opacity="1" fill-rule="nonzero"/><path fill="#f95070" d="M 252.089844 191.496094 C 252.050781 191.597656 251.96875 191.675781 251.859375 191.707031 C 251.414062 191.828125 251.066406 191.667969 250.78125 191.320312 C 250.707031 191.226562 250.605469 191.15625 250.488281 191.128906 C 249.941406 190.988281 249.558594 190.695312 249.433594 190.226562 C 249.390625 190.085938 249.382812 189.933594 249.429688 189.789062 C 249.472656 189.644531 249.550781 189.558594 249.652344 189.527344 C 249.644531 189.546875 249.636719 189.566406 249.628906 189.589844 C 249.585938 189.734375 249.59375 189.886719 249.632812 190.03125 C 249.761719 190.496094 250.140625 190.789062 250.6875 190.929688 C 250.804688 190.957031 250.90625 191.027344 250.984375 191.121094 C 251.269531 191.46875 251.617188 191.628906 252.0625 191.507812 C 252.070312 191.503906 252.082031 191.5 252.089844 191.496094 Z M 252.089844 191.496094 " fill-opacity="1" fill-rule="nonzero"/><path fill="#285294" d="M 252.320312 181.855469 L 252.296875 186.1875 L 252.117188 190.1875 C 252.03125 190.925781 250.550781 190.75 250.636719 190.011719 C 250.574219 188.09375 250.371094 187.164062 250.015625 185.421875 L 250.289062 181.855469 L 250.953125 181.308594 Z M 252.320312 181.855469 " fill-opacity="1" fill-rule="nonzero"/><path fill="#263966" d="M 252.320312 181.855469 L 252.296875 186.191406 L 252.117188 190.191406 C 252.078125 190.53125 251.734375 190.675781 251.390625 190.660156 C 251.355469 190.601562 251.324219 190.542969 251.300781 190.476562 C 251.257812 190.339844 251.265625 190.195312 251.273438 190.050781 C 251.296875 189.601562 251.316406 189.152344 251.339844 188.699219 C 251.363281 188.25 251.382812 187.796875 251.472656 187.355469 C 251.515625 187.132812 251.578125 186.90625 251.539062 186.683594 C 251.5 186.453125 251.359375 186.21875 251.441406 186 C 251.464844 185.929688 251.511719 185.871094 251.535156 185.804688 C 251.566406 185.71875 251.5625 185.625 251.558594 185.535156 C 251.546875 185.085938 251.609375 184.636719 251.746094 184.210938 C 251.777344 184.109375 251.8125 184.011719 251.828125 183.90625 C 251.84375 183.769531 251.820312 183.628906 251.796875 183.492188 C 251.707031 182.953125 251.59375 182.398438 251.703125 181.859375 C 251.71875 181.785156 251.738281 181.707031 251.765625 181.632812 Z M 252.320312 181.855469 " fill-opacity="1" fill-rule="nonzero"/><path fill="#285294" d="M 247.542969 182.125 C 247.542969 182.125 247.183594 185.742188 247.128906 186.953125 C 247.050781 188.625 247.070312 192.402344 247.070312 192.402344 C 247.039062 193.164062 248.683594 193.234375 248.714844 192.472656 L 249.261719 188.308594 C 249.300781 188 249.367188 187.695312 249.453125 187.394531 L 250.777344 182.757812 L 249.109375 181.855469 Z M 247.542969 182.125 " fill-opacity="1" fill-rule="nonzero"/><path fill="#263966" d="M 250.886719 182.371094 L 249.453125 187.394531 C 249.367188 187.695312 249.300781 188 249.261719 188.308594 L 248.714844 192.472656 C 248.707031 192.726562 248.515625 192.886719 248.269531 192.960938 C 248.050781 192.742188 248.023438 192.402344 248.007812 192.089844 C 247.996094 191.808594 247.980469 191.523438 247.96875 191.238281 C 247.957031 191.035156 247.949219 190.832031 247.992188 190.632812 C 248.03125 190.472656 248.101562 190.324219 248.152344 190.171875 C 248.394531 189.460938 248.246094 188.640625 248.574219 187.964844 C 248.628906 187.851562 248.699219 187.742188 248.726562 187.621094 C 248.773438 187.429688 248.714844 187.230469 248.71875 187.03125 C 248.71875 186.84375 248.773438 186.65625 248.875 186.496094 C 248.941406 186.398438 249.019531 186.3125 249.0625 186.207031 C 249.128906 186.03125 249.085938 185.835938 249.085938 185.648438 C 249.082031 185.21875 249.300781 184.820312 249.542969 184.464844 C 249.679688 184.257812 249.832031 184.054688 249.910156 183.816406 C 250.003906 183.535156 249.988281 183.21875 250.121094 182.953125 C 250.191406 182.808594 250.320312 182.675781 250.46875 182.59375 Z M 250.886719 182.371094 " fill-opacity="1" fill-rule="nonzero"/><path fill="#f7b2b2" d="M 246.53125 174.5625 L 246.726562 174.421875 C 246.828125 174.347656 246.894531 174.238281 246.914062 174.117188 C 246.984375 173.65625 247.230469 172.523438 247.910156 172.644531 C 248.757812 172.796875 248.484375 173.324219 248.484375 173.324219 C 248.484375 173.324219 248.214844 174.269531 247.601562 174.5625 L 247.484375 175.128906 L 246.730469 174.945312 Z M 246.53125 174.5625 " fill-opacity="1" fill-rule="nonzero"/><path fill="#f1f3f2" d="M 252.511719 181.90625 C 252.609375 183.160156 247.585938 183.410156 247.488281 182.15625 L 247.589844 180.027344 C 247.621094 179.445312 247.582031 178.859375 247.484375 178.28125 L 247.386719 177.707031 C 247.363281 177.574219 247.34375 177.4375 247.332031 177.300781 C 247.324219 177.214844 247.226562 177.164062 247.152344 177.207031 L 245.203125 178.300781 C 244.867188 178.488281 244.441406 178.394531 244.21875 178.078125 C 244.128906 177.949219 244.082031 177.796875 244.082031 177.644531 C 244.082031 177.472656 244.144531 177.296875 244.261719 177.160156 L 246.53125 174.507812 C 246.648438 174.3125 246.953125 174.402344 247.261719 174.574219 C 247.320312 174.605469 247.394531 174.605469 247.453125 174.574219 C 249.042969 173.714844 250.5 173.320312 251.820312 173.742188 C 251.949219 173.78125 252.066406 173.847656 252.164062 173.941406 C 253.035156 174.757812 252.878906 176.445312 252.359375 178.34375 C 252.265625 178.683594 252.238281 179.035156 252.273438 179.386719 Z M 252.511719 181.90625 " fill-opacity="1" fill-rule="nonzero"/><path fill="#f7b2b2" d="M 250.640625 172.992188 L 250.640625 173.707031 C 250.695312 174.207031 248.984375 174.398438 248.925781 173.898438 L 248.894531 173.199219 C 248.894531 173.199219 249.066406 172.769531 249.070312 172.742188 C 249.078125 172.71875 250.511719 172.558594 250.511719 172.558594 Z M 250.640625 172.992188 " fill-opacity="1" fill-rule="nonzero"/><path fill="#f7b2b2" d="M 248.296875 170.28125 C 248.011719 170.992188 247.921875 171.84375 247.992188 172.808594 C 248.007812 172.976562 248.125 173.121094 248.289062 173.164062 C 248.730469 173.277344 249.21875 173.234375 249.671875 173.015625 C 249.671875 173.015625 250.257812 171.535156 250.257812 171.457031 C 250.257812 171.378906 249.234375 170.40625 249.167969 170.355469 C 249.105469 170.308594 248.296875 170.28125 248.296875 170.28125 Z M 248.296875 170.28125 " fill-opacity="1" fill-rule="nonzero"/><path fill="#eaa7a7" d="M 249.734375 172.855469 C 249.695312 172.953125 249.726562 173.019531 249.726562 173.019531 C 249.273438 173.238281 248.730469 173.277344 248.289062 173.164062 C 248.125 173.121094 248.007812 172.976562 247.996094 172.808594 C 247.921875 171.84375 248.011719 170.992188 248.296875 170.28125 C 248.296875 170.28125 248.332031 170.28125 248.386719 170.285156 C 248.160156 170.953125 248.09375 171.730469 248.160156 172.601562 C 248.171875 172.773438 248.289062 172.917969 248.453125 172.960938 C 248.863281 173.0625 249.308594 173.035156 249.734375 172.855469 Z M 249.734375 172.855469 " fill-opacity="1" fill-rule="nonzero"/><path fill="#353437" d="M 250.972656 169.742188 C 250.875 169.398438 250.585938 169.261719 250.160156 169.273438 C 249.898438 169.28125 249.644531 169.347656 249.410156 169.460938 C 249.035156 169.640625 248.675781 169.679688 248.324219 169.546875 C 248.246094 169.519531 248.160156 169.566406 248.148438 169.648438 C 248.085938 170.09375 248.25 170.367188 248.648438 170.476562 C 248.726562 170.496094 248.773438 170.578125 248.753906 170.65625 C 248.671875 170.988281 248.667969 171.34375 248.785156 171.730469 C 248.816406 171.839844 248.917969 171.914062 249.035156 171.914062 C 249.105469 171.914062 249.179688 171.886719 249.226562 171.828125 C 249.34375 171.691406 249.464844 171.691406 249.59375 171.804688 C 249.722656 171.953125 249.710938 172.386719 249.683594 172.839844 C 249.671875 173.03125 249.832031 173.183594 250.019531 173.164062 L 250.28125 173.136719 C 250.484375 173.117188 250.667969 173.007812 250.78125 172.835938 L 251.480469 171.773438 C 251.523438 171.710938 251.554688 171.640625 251.566406 171.566406 C 251.691406 170.894531 251.597656 170.367188 251.195312 170.050781 C 251.089844 169.972656 251.007812 169.867188 250.972656 169.742188 Z M 250.972656 169.742188 " fill-opacity="1" fill-rule="nonzero"/><path fill="#29282b" d="M 251.566406 171.566406 C 251.554688 171.640625 251.523438 171.710938 251.480469 171.773438 L 250.78125 172.835938 C 250.707031 172.949219 250.597656 173.039062 250.472656 173.089844 L 251.105469 172.128906 C 251.148438 172.066406 251.179688 171.996094 251.191406 171.921875 C 251.320312 171.246094 251.226562 170.722656 250.820312 170.40625 C 250.71875 170.324219 250.632812 170.222656 250.597656 170.097656 C 250.5 169.753906 250.210938 169.617188 249.785156 169.628906 C 249.527344 169.636719 249.269531 169.703125 249.035156 169.816406 C 248.730469 169.960938 248.4375 170.015625 248.144531 169.957031 C 248.132812 169.867188 248.132812 169.761719 248.148438 169.648438 C 248.160156 169.566406 248.246094 169.519531 248.324219 169.546875 C 248.675781 169.679688 249.039062 169.640625 249.410156 169.460938 C 249.644531 169.347656 249.898438 169.28125 250.160156 169.273438 C 250.585938 169.261719 250.875 169.398438 250.972656 169.742188 C 251.007812 169.867188 251.09375 169.972656 251.195312 170.050781 C 251.597656 170.367188 251.691406 170.894531 251.566406 171.566406 Z M 251.566406 171.566406 " fill-opacity="1" fill-rule="nonzero"/><path fill="#d4d6d8" d="M 247.683594 174.453125 C 246.980469 175.21875 245.925781 176.101562 244.765625 177.019531 L 247.273438 174.578125 C 247.308594 174.597656 247.347656 174.601562 247.386719 174.59375 C 247.410156 174.59375 247.433594 174.585938 247.453125 174.574219 C 247.53125 174.53125 247.605469 174.492188 247.683594 174.453125 Z M 247.683594 174.453125 " fill-opacity="1" fill-rule="nonzero"/><path fill="#d4d6d8" d="M 247.488281 182.15625 L 247.589844 180.027344 C 247.621094 179.445312 247.582031 178.859375 247.484375 178.28125 L 247.386719 177.707031 C 247.363281 177.574219 247.34375 177.4375 247.332031 177.300781 C 247.324219 177.214844 247.226562 177.167969 247.152344 177.207031 L 245.203125 178.300781 C 244.867188 178.488281 244.441406 178.394531 244.21875 178.078125 C 244.128906 177.949219 244.082031 177.796875 244.082031 177.644531 C 244.082031 177.472656 244.144531 177.296875 244.261719 177.160156 L 246.53125 174.507812 C 246.589844 174.410156 246.699219 174.382812 246.828125 174.402344 C 246.878906 174.503906 246.917969 174.617188 246.859375 174.625 C 246.601562 174.667969 246.378906 174.863281 246.300781 175.109375 C 246.28125 175.175781 246.269531 175.25 246.230469 175.3125 C 246.195312 175.375 246.132812 175.417969 246.074219 175.464844 C 245.578125 175.839844 245.171875 176.316406 244.773438 176.792969 C 244.652344 176.933594 244.53125 177.078125 244.472656 177.253906 C 244.414062 177.429688 244.433594 177.640625 244.570312 177.765625 C 244.800781 177.980469 245.171875 177.824219 245.429688 177.644531 C 245.738281 177.425781 246.035156 177.171875 246.386719 177.027344 C 246.742188 176.882812 247.175781 176.863281 247.480469 177.089844 C 247.769531 177.308594 247.878906 177.695312 247.886719 178.058594 C 247.894531 178.421875 247.824219 178.78125 247.847656 179.144531 C 247.863281 179.402344 247.925781 179.65625 247.941406 179.914062 C 247.972656 180.351562 247.882812 180.785156 247.835938 181.21875 C 247.8125 181.441406 247.800781 181.679688 247.902344 181.878906 C 248.09375 182.25 248.574219 182.34375 248.988281 182.34375 C 250.046875 182.351562 251.101562 182.039062 251.980469 181.460938 C 252.132812 181.363281 252.28125 181.257812 252.441406 181.179688 L 252.511719 181.90625 C 252.609375 183.160156 247.585938 183.410156 247.488281 182.15625 Z M 247.488281 182.15625 " fill-opacity="1" fill-rule="nonzero"/><g clip-path="url(#8fc3ed6fcf)"><path fill="#dde9fe" d="M 242.300781 186.519531 C 242.300781 187.441406 241.648438 188.566406 240.84375 189.035156 L 232.347656 193.925781 C 231.933594 194.164062 231.558594 194.179688 231.292969 194.019531 L 230.347656 193.46875 C 230.085938 193.316406 229.921875 192.996094 229.921875 192.535156 L 229.871094 174.304688 C 229.867188 173.378906 230.519531 172.253906 231.324219 171.789062 L 239.820312 166.898438 C 240.226562 166.664062 240.59375 166.640625 240.863281 166.792969 L 241.820312 167.351562 C 241.816406 167.347656 241.808594 167.34375 241.800781 167.339844 C 242.074219 167.488281 242.246094 167.816406 242.246094 168.285156 Z M 242.300781 186.519531 " fill-opacity="1" fill-rule="nonzero"/></g><g clip-path="url(#0599a8847f)"><path fill="#6a95d3" d="M 241.824219 167.351562 C 241.558594 167.199219 241.1875 167.21875 240.78125 167.453125 L 232.285156 172.347656 C 231.480469 172.808594 230.828125 173.9375 230.832031 174.859375 L 230.882812 193.09375 C 230.882812 193.550781 231.046875 193.875 231.308594 194.027344 L 230.347656 193.46875 C 230.085938 193.316406 229.921875 192.996094 229.921875 192.535156 L 229.871094 174.304688 C 229.867188 173.378906 230.519531 172.253906 231.324219 171.789062 L 239.820312 166.894531 C 240.226562 166.664062 240.59375 166.640625 240.863281 166.792969 Z M 241.824219 167.351562 " fill-opacity="1" fill-rule="nonzero"/></g><g clip-path="url(#184b210551)"><path fill="#dde9fe" d="M 240.78125 167.453125 C 241.589844 166.988281 242.246094 167.363281 242.246094 168.285156 L 242.296875 186.519531 C 242.300781 187.441406 241.648438 188.570312 240.84375 189.03125 L 232.347656 193.925781 C 231.539062 194.390625 230.882812 194.015625 230.882812 193.09375 L 230.832031 174.859375 C 230.828125 173.933594 231.480469 172.808594 232.285156 172.34375 Z M 240.78125 167.453125 " fill-opacity="1" fill-rule="nonzero"/></g><path fill="#ffffff" d="M 240.8125 168.359375 C 241.332031 168.058594 241.753906 168.300781 241.753906 168.894531 L 241.804688 186.1875 C 241.804688 186.78125 241.386719 187.507812 240.867188 187.804688 L 232.371094 192.699219 C 231.851562 192.996094 231.429688 192.757812 231.429688 192.164062 L 231.378906 174.867188 C 231.378906 174.273438 231.796875 173.546875 232.316406 173.25 Z M 240.8125 168.359375 " fill-opacity="1" fill-rule="nonzero"/><path fill="#b0c4ff" d="M 240.5 177.679688 C 240.503906 178.269531 240.089844 178.984375 239.574219 179.28125 L 233.875 182.5625 C 233.609375 182.714844 233.371094 182.726562 233.203125 182.621094 L 232.984375 182.496094 C 232.820312 182.402344 232.714844 182.195312 232.714844 181.902344 L 232.683594 175.386719 C 232.679688 174.796875 233.09375 174.082031 233.609375 173.785156 L 239.3125 170.5 C 239.570312 170.351562 239.804688 170.339844 239.972656 170.4375 L 240.199219 170.566406 C 240.191406 170.5625 240.1875 170.5625 240.179688 170.558594 C 240.355469 170.648438 240.46875 170.859375 240.46875 171.164062 Z M 240.5 177.679688 " fill-opacity="1" fill-rule="nonzero"/><path fill="#92b2f9" d="M 240.199219 170.566406 C 240.03125 170.46875 239.796875 170.484375 239.535156 170.632812 L 233.835938 173.917969 C 233.320312 174.210938 232.90625 174.929688 232.90625 175.515625 L 232.941406 182.035156 C 232.941406 182.328125 233.042969 182.53125 233.210938 182.628906 L 232.984375 182.496094 C 232.820312 182.402344 232.714844 182.195312 232.714844 181.902344 L 232.683594 175.386719 C 232.679688 174.796875 233.09375 174.082031 233.609375 173.785156 L 239.308594 170.5 C 239.570312 170.351562 239.804688 170.339844 239.972656 170.4375 Z M 240.199219 170.566406 " fill-opacity="1" fill-rule="nonzero"/><path fill="#b0c4ff" d="M 239.535156 170.632812 C 240.050781 170.335938 240.46875 170.574219 240.46875 171.164062 L 240.503906 177.679688 C 240.503906 178.269531 240.089844 178.984375 239.574219 179.28125 L 233.875 182.566406 C 233.359375 182.859375 232.941406 182.621094 232.941406 182.035156 L 232.910156 175.515625 C 232.90625 174.929688 233.320312 174.210938 233.835938 173.917969 Z M 239.535156 170.632812 " fill-opacity="1" fill-rule="nonzero"/><path fill="#dde9fe" d="M 239.6875 178.703125 L 233.714844 182.140625 C 233.570312 182.222656 233.390625 182.117188 233.390625 181.953125 L 233.363281 175.136719 C 233.363281 174.882812 233.5 174.644531 233.71875 174.519531 L 239.695312 171.066406 C 239.839844 170.984375 240.019531 171.085938 240.019531 171.253906 L 240.046875 178.082031 C 240.046875 178.339844 239.910156 178.574219 239.6875 178.703125 Z M 239.6875 178.703125 " fill-opacity="1" fill-rule="nonzero"/><path fill="#ffffff" d="M 236.699219 174.058594 C 237.921875 173.355469 238.917969 173.921875 238.921875 175.324219 C 238.925781 176.730469 237.9375 178.441406 236.710938 179.144531 C 235.484375 179.851562 234.488281 179.285156 234.484375 177.878906 C 234.480469 176.476562 235.472656 174.765625 236.699219 174.058594 Z M 236.699219 174.058594 " fill-opacity="1" fill-rule="nonzero"/><path fill="#5789dc" d="M 236.699219 176.128906 C 237.089844 175.902344 237.445312 175.882812 237.699219 176.027344 C 237.925781 176.15625 238.074219 176.410156 238.109375 176.769531 C 238.117188 176.855469 238.054688 176.96875 237.976562 177.011719 L 235.433594 178.480469 C 235.355469 178.523438 235.292969 178.484375 235.300781 178.390625 C 235.371094 177.53125 235.96875 176.550781 236.699219 176.128906 Z M 236.699219 176.128906 " fill-opacity="1" fill-rule="nonzero"/><path fill="#5789dc" d="M 236.695312 174.773438 C 236.960938 174.621094 237.175781 174.742188 237.175781 175.046875 C 237.175781 175.347656 236.964844 175.71875 236.699219 175.871094 C 236.4375 176.023438 236.222656 175.898438 236.21875 175.597656 C 236.21875 175.292969 236.433594 174.925781 236.695312 174.773438 Z M 236.695312 174.773438 " fill-opacity="1" fill-rule="nonzero"/><path fill="#dde9fe" d="M 240.101562 180.125 C 240.273438 180.027344 240.414062 180.105469 240.414062 180.304688 L 240.417969 181.144531 C 240.417969 181.339844 240.277344 181.582031 240.105469 181.679688 L 233.308594 185.59375 C 233.136719 185.695312 232.996094 185.613281 232.996094 185.417969 L 232.992188 184.578125 C 232.992188 184.382812 233.132812 184.140625 233.304688 184.042969 Z M 240.101562 180.125 " fill-opacity="1" fill-rule="nonzero"/><path fill="#5789dc" d="M 233.855469 184.125 L 233.859375 184.394531 L 234.085938 184.171875 L 234.125 184.28125 L 233.898438 184.496094 L 234.042969 184.636719 L 233.9375 184.78125 L 233.800781 184.628906 L 233.664062 184.941406 L 233.558594 184.917969 L 233.699219 184.609375 L 233.46875 184.65625 L 233.511719 184.5 L 233.738281 184.464844 L 233.738281 184.195312 Z M 233.855469 184.125 " fill-opacity="1" fill-rule="nonzero"/><path fill="#5789dc" d="M 234.6875 183.648438 L 234.6875 183.914062 L 234.914062 183.691406 L 234.957031 183.800781 L 234.730469 184.015625 L 234.871094 184.160156 L 234.769531 184.304688 L 234.632812 184.152344 L 234.496094 184.460938 L 234.386719 184.4375 L 234.53125 184.132812 L 234.300781 184.179688 L 234.34375 184.023438 L 234.566406 183.984375 L 234.566406 183.71875 Z M 234.6875 183.648438 " fill-opacity="1" fill-rule="nonzero"/><path fill="#5789dc" d="M 235.519531 183.171875 L 235.519531 183.4375 L 235.746094 183.214844 L 235.789062 183.324219 L 235.558594 183.539062 L 235.703125 183.683594 L 235.597656 183.828125 L 235.460938 183.671875 L 235.324219 183.984375 L 235.21875 183.960938 L 235.359375 183.652344 L 235.132812 183.703125 L 235.171875 183.546875 L 235.398438 183.507812 L 235.398438 183.238281 Z M 235.519531 183.171875 " fill-opacity="1" fill-rule="nonzero"/><path fill="#5789dc" d="M 236.347656 182.691406 L 236.347656 182.957031 L 236.574219 182.738281 L 236.617188 182.84375 L 236.390625 183.0625 L 236.53125 183.203125 L 236.429688 183.347656 L 236.292969 183.195312 L 236.15625 183.507812 L 236.046875 183.480469 L 236.191406 183.175781 L 235.960938 183.222656 L 236.003906 183.066406 L 236.226562 183.03125 L 236.226562 182.761719 Z M 236.347656 182.691406 " fill-opacity="1" fill-rule="nonzero"/><path fill="#5789dc" d="M 237.179688 182.214844 L 237.179688 182.480469 L 237.40625 182.257812 L 237.449219 182.367188 L 237.222656 182.582031 L 237.363281 182.726562 L 237.257812 182.871094 L 237.121094 182.714844 L 236.984375 183.027344 L 236.878906 183.003906 L 237.019531 182.699219 L 236.792969 182.746094 L 236.832031 182.589844 L 237.058594 182.550781 L 237.058594 182.285156 Z M 237.179688 182.214844 " fill-opacity="1" fill-rule="nonzero"/><path fill="#5789dc" d="M 238.007812 181.734375 L 238.007812 182.003906 L 238.234375 181.78125 L 238.277344 181.890625 L 238.050781 182.105469 L 238.191406 182.246094 L 238.089844 182.390625 L 237.953125 182.238281 L 237.816406 182.550781 L 237.710938 182.527344 L 237.851562 182.21875 L 237.621094 182.265625 L 237.664062 182.109375 L 237.886719 182.074219 L 237.886719 181.804688 Z M 238.007812 181.734375 " fill-opacity="1" fill-rule="nonzero"/><path fill="#5789dc" d="M 238.839844 181.257812 L 238.839844 181.523438 L 239.066406 181.300781 L 239.109375 181.410156 L 238.882812 181.625 L 239.023438 181.769531 L 238.921875 181.914062 L 238.78125 181.761719 L 238.644531 182.070312 L 238.539062 182.046875 L 238.679688 181.742188 L 238.453125 181.789062 L 238.492188 181.632812 L 238.71875 181.597656 L 238.71875 181.328125 Z M 238.839844 181.257812 " fill-opacity="1" fill-rule="nonzero"/><path fill="#5789dc" d="M 239.667969 180.78125 L 239.667969 181.046875 L 239.898438 180.824219 L 239.9375 180.933594 L 239.710938 181.148438 L 239.851562 181.292969 L 239.75 181.4375 L 239.613281 181.28125 L 239.476562 181.59375 L 239.371094 181.570312 L 239.511719 181.261719 L 239.28125 181.3125 L 239.324219 181.15625 L 239.550781 181.117188 L 239.546875 180.847656 Z M 239.667969 180.78125 " fill-opacity="1" fill-rule="nonzero"/><path fill="#dde9fe" d="M 240.101562 182.503906 C 240.273438 182.40625 240.414062 182.484375 240.414062 182.683594 L 240.417969 183.519531 C 240.417969 183.71875 240.277344 183.957031 240.105469 184.058594 L 233.308594 187.972656 C 233.136719 188.070312 232.996094 187.992188 232.996094 187.792969 L 232.992188 186.957031 C 232.992188 186.757812 233.132812 186.519531 233.304688 186.417969 Z M 240.101562 182.503906 " fill-opacity="1" fill-rule="nonzero"/><path fill="#5789dc" d="M 233.855469 186.503906 L 233.859375 186.769531 L 234.085938 186.550781 L 234.125 186.65625 L 233.898438 186.871094 L 234.042969 187.015625 L 233.9375 187.160156 L 233.800781 187.007812 L 233.664062 187.320312 L 233.558594 187.292969 L 233.699219 186.988281 L 233.46875 187.035156 L 233.511719 186.878906 L 233.738281 186.84375 L 233.738281 186.574219 Z M 233.855469 186.503906 " fill-opacity="1" fill-rule="nonzero"/><path fill="#5789dc" d="M 234.6875 186.027344 L 234.6875 186.292969 L 234.914062 186.070312 L 234.957031 186.179688 L 234.730469 186.394531 L 234.871094 186.539062 L 234.769531 186.683594 L 234.632812 186.527344 L 234.496094 186.839844 L 234.386719 186.816406 L 234.53125 186.507812 L 234.300781 186.558594 L 234.34375 186.402344 L 234.566406 186.363281 L 234.566406 186.09375 Z M 234.6875 186.027344 " fill-opacity="1" fill-rule="nonzero"/><path fill="#5789dc" d="M 235.519531 185.546875 L 235.519531 185.8125 L 235.746094 185.59375 L 235.789062 185.699219 L 235.558594 185.917969 L 235.703125 186.058594 L 235.597656 186.203125 L 235.460938 186.050781 L 235.324219 186.363281 L 235.21875 186.339844 L 235.359375 186.03125 L 235.132812 186.078125 L 235.171875 185.921875 L 235.398438 185.886719 L 235.398438 185.617188 Z M 235.519531 185.546875 " fill-opacity="1" fill-rule="nonzero"/><path fill="#5789dc" d="M 236.347656 185.070312 L 236.347656 185.335938 L 236.574219 185.113281 L 236.617188 185.222656 L 236.390625 185.4375 L 236.53125 185.582031 L 236.429688 185.726562 L 236.292969 185.570312 L 236.15625 185.882812 L 236.046875 185.859375 L 236.191406 185.554688 L 235.960938 185.601562 L 236.003906 185.445312 L 236.226562 185.40625 L 236.226562 185.140625 Z M 236.347656 185.070312 " fill-opacity="1" fill-rule="nonzero"/><path fill="#5789dc" d="M 237.179688 184.589844 L 237.179688 184.859375 L 237.40625 184.636719 L 237.449219 184.746094 L 237.222656 184.960938 L 237.363281 185.105469 L 237.257812 185.25 L 237.121094 185.09375 L 236.984375 185.40625 L 236.878906 185.382812 L 237.019531 185.074219 L 236.792969 185.121094 L 236.832031 184.964844 L 237.058594 184.929688 L 237.058594 184.660156 Z M 237.179688 184.589844 " fill-opacity="1" fill-rule="nonzero"/><path fill="#5789dc" d="M 238.007812 184.113281 L 238.007812 184.378906 L 238.234375 184.160156 L 238.277344 184.265625 L 238.050781 184.480469 L 238.191406 184.625 L 238.089844 184.769531 L 237.953125 184.617188 L 237.816406 184.929688 L 237.710938 184.902344 L 237.851562 184.597656 L 237.621094 184.644531 L 237.664062 184.488281 L 237.886719 184.453125 L 237.886719 184.183594 Z M 238.007812 184.113281 " fill-opacity="1" fill-rule="nonzero"/><path fill="#5789dc" d="M 238.839844 183.636719 L 238.839844 183.902344 L 239.066406 183.679688 L 239.109375 183.789062 L 238.882812 184.003906 L 239.023438 184.148438 L 238.921875 184.292969 L 238.78125 184.136719 L 238.644531 184.449219 L 238.539062 184.425781 L 238.679688 184.121094 L 238.453125 184.167969 L 238.492188 184.011719 L 238.71875 183.972656 L 238.71875 183.707031 Z M 238.839844 183.636719 " fill-opacity="1" fill-rule="nonzero"/><path fill="#5789dc" d="M 239.667969 183.15625 L 239.667969 183.425781 L 239.898438 183.203125 L 239.9375 183.308594 L 239.710938 183.527344 L 239.851562 183.667969 L 239.75 183.8125 L 239.613281 183.660156 L 239.476562 183.972656 L 239.371094 183.949219 L 239.511719 183.640625 L 239.28125 183.6875 L 239.324219 183.53125 L 239.550781 183.496094 L 239.546875 183.226562 Z M 239.667969 183.15625 " fill-opacity="1" fill-rule="nonzero"/><path fill="#dde9fe" d="M 238.222656 186.144531 C 238.699219 185.867188 239.089844 186.089844 239.09375 186.640625 C 239.09375 187.1875 238.707031 187.859375 238.226562 188.136719 L 235.1875 189.886719 C 234.707031 190.160156 234.316406 189.941406 234.316406 189.390625 C 234.316406 188.839844 234.703125 188.171875 235.183594 187.894531 Z M 238.222656 186.144531 " fill-opacity="1" fill-rule="nonzero"/><path fill="#285294" d="M 235.40625 188.425781 L 235.40625 188.507812 L 235.082031 188.695312 L 235.082031 188.898438 L 235.367188 188.734375 L 235.367188 188.816406 L 235.082031 188.980469 L 235.082031 189.285156 L 235.003906 189.332031 L 235 188.660156 Z M 235.40625 188.425781 " fill-opacity="1" fill-rule="nonzero"/><path fill="#285294" d="M 235.972656 188.195312 C 236.011719 188.234375 236.03125 188.296875 236.03125 188.390625 C 236.03125 188.492188 236.011719 188.585938 235.964844 188.679688 C 235.914062 188.785156 235.839844 188.867188 235.746094 188.921875 C 235.65625 188.976562 235.582031 188.980469 235.53125 188.941406 C 235.484375 188.90625 235.460938 188.835938 235.460938 188.734375 C 235.460938 188.644531 235.480469 188.554688 235.519531 188.46875 C 235.570312 188.355469 235.644531 188.269531 235.742188 188.214844 C 235.847656 188.15625 235.925781 188.148438 235.972656 188.195312 Z M 235.90625 188.664062 C 235.9375 188.589844 235.949219 188.511719 235.949219 188.4375 C 235.949219 188.359375 235.933594 188.308594 235.898438 188.28125 C 235.859375 188.253906 235.8125 188.257812 235.75 188.292969 C 235.6875 188.328125 235.640625 188.378906 235.601562 188.449219 C 235.5625 188.519531 235.542969 188.601562 235.542969 188.691406 C 235.542969 188.765625 235.5625 188.820312 235.59375 188.851562 C 235.628906 188.882812 235.679688 188.878906 235.753906 188.835938 C 235.824219 188.796875 235.875 188.738281 235.90625 188.664062 " fill-opacity="1" fill-rule="nonzero"/><path fill="#285294" d="M 236.597656 188.355469 C 236.601562 188.375 236.609375 188.382812 236.621094 188.382812 L 236.621094 188.398438 L 236.527344 188.453125 C 236.523438 188.449219 236.519531 188.441406 236.519531 188.433594 C 236.515625 188.425781 236.515625 188.410156 236.515625 188.382812 L 236.511719 188.277344 C 236.507812 188.234375 236.492188 188.210938 236.46875 188.210938 C 236.453125 188.210938 236.429688 188.222656 236.394531 188.242188 L 236.214844 188.34375 L 236.214844 188.632812 L 236.136719 188.675781 L 236.136719 188.007812 L 236.40625 187.851562 C 236.449219 187.824219 236.488281 187.8125 236.515625 187.808594 C 236.570312 187.808594 236.597656 187.84375 236.597656 187.921875 C 236.597656 187.960938 236.59375 188 236.578125 188.03125 C 236.5625 188.066406 236.542969 188.097656 236.515625 188.128906 C 236.539062 188.125 236.558594 188.128906 236.570312 188.140625 C 236.582031 188.152344 236.585938 188.175781 236.589844 188.214844 L 236.589844 188.304688 C 236.59375 188.328125 236.59375 188.34375 236.597656 188.355469 Z M 236.488281 188.085938 C 236.507812 188.058594 236.519531 188.019531 236.519531 187.976562 C 236.519531 187.929688 236.503906 187.90625 236.472656 187.90625 C 236.457031 187.90625 236.433594 187.914062 236.410156 187.929688 L 236.214844 188.039062 L 236.214844 188.269531 L 236.398438 188.164062 C 236.433594 188.140625 236.464844 188.117188 236.488281 188.085938 " fill-opacity="1" fill-rule="nonzero"/><path fill="#285294" d="M 236.96875 187.511719 C 237.023438 187.480469 237.070312 187.464844 237.109375 187.464844 C 237.167969 187.46875 237.203125 187.507812 237.214844 187.589844 L 237.136719 187.632812 C 237.128906 187.589844 237.109375 187.566406 237.078125 187.558594 C 237.046875 187.554688 237.011719 187.566406 236.964844 187.59375 C 236.910156 187.625 236.867188 187.671875 236.828125 187.742188 C 236.792969 187.808594 236.773438 187.886719 236.773438 187.980469 C 236.773438 188.058594 236.789062 188.117188 236.820312 188.148438 C 236.851562 188.179688 236.902344 188.175781 236.96875 188.136719 C 237.023438 188.105469 237.066406 188.066406 237.101562 188.011719 C 237.136719 187.953125 237.152344 187.886719 237.152344 187.808594 L 236.96875 187.914062 L 236.96875 187.839844 L 237.226562 187.691406 L 237.226562 188.050781 L 237.175781 188.078125 L 237.15625 188.003906 C 237.128906 188.054688 237.105469 188.089844 237.085938 188.113281 C 237.050781 188.15625 237.007812 188.195312 236.953125 188.226562 C 236.882812 188.265625 236.824219 188.273438 236.773438 188.25 C 236.71875 188.21875 236.691406 188.144531 236.691406 188.03125 C 236.691406 187.921875 236.71875 187.816406 236.769531 187.71875 C 236.820312 187.625 236.886719 187.558594 236.96875 187.511719 Z M 236.96875 187.511719 " fill-opacity="1" fill-rule="nonzero"/><path fill="#285294" d="M 237.832031 187.128906 C 237.871094 187.164062 237.890625 187.230469 237.890625 187.320312 C 237.890625 187.421875 237.867188 187.515625 237.824219 187.609375 C 237.769531 187.71875 237.695312 187.796875 237.601562 187.855469 C 237.511719 187.90625 237.441406 187.914062 237.390625 187.875 C 237.34375 187.835938 237.320312 187.765625 237.320312 187.664062 C 237.320312 187.574219 237.339844 187.484375 237.378906 187.398438 C 237.425781 187.285156 237.5 187.203125 237.601562 187.144531 C 237.703125 187.085938 237.78125 187.082031 237.832031 187.128906 Z M 237.761719 187.59375 C 237.792969 187.519531 237.808594 187.445312 237.808594 187.371094 C 237.808594 187.289062 237.789062 187.238281 237.753906 187.210938 C 237.71875 187.183594 237.667969 187.1875 237.605469 187.222656 C 237.546875 187.257812 237.496094 187.308594 237.457031 187.378906 C 237.417969 187.449219 237.402344 187.53125 237.402344 187.625 C 237.402344 187.699219 237.417969 187.75 237.449219 187.78125 C 237.484375 187.816406 237.535156 187.808594 237.609375 187.769531 C 237.679688 187.726562 237.730469 187.667969 237.761719 187.59375 " fill-opacity="1" fill-rule="nonzero"/><path fill="#285294" d="M 238.40625 186.699219 L 238.40625 186.777344 L 238.210938 186.890625 L 238.210938 187.484375 L 238.132812 187.527344 L 238.128906 186.9375 L 237.933594 187.050781 L 237.933594 186.972656 Z M 238.40625 186.699219 " fill-opacity="1" fill-rule="nonzero"/><path fill="#b0c4ff" d="M 238.90625 192.1875 C 238.898438 192.183594 238.894531 192.179688 238.890625 192.179688 C 238.878906 192.171875 238.871094 192.164062 238.859375 192.15625 C 238.875 192.167969 238.886719 192.175781 238.90625 192.1875 Z M 238.90625 192.1875 " fill-opacity="1" fill-rule="nonzero"/><path fill="#b0c4ff" d="M 245.597656 188.578125 L 239.421875 192.136719 C 239.210938 192.257812 239.03125 192.261719 238.90625 192.1875 C 238.886719 192.175781 238.875 192.167969 238.859375 192.15625 C 238.871094 192.164062 238.878906 192.171875 238.890625 192.179688 L 238.488281 191.945312 C 238.246094 191.804688 238.183594 191.371094 238.429688 190.871094 L 241.507812 184.03125 C 241.652344 183.734375 241.863281 183.507812 242.074219 183.386719 C 242.261719 183.277344 242.449219 183.25 242.589844 183.335938 L 243.007812 183.578125 C 243.027344 183.585938 243.046875 183.601562 243.0625 183.617188 L 246.164062 186.902344 C 246.542969 187.230469 246.207031 188.230469 245.597656 188.578125 Z M 245.597656 188.578125 " fill-opacity="1" fill-rule="nonzero"/><path fill="#b0c4ff" d="M 238.90625 192.1875 C 238.898438 192.183594 238.894531 192.179688 238.890625 192.179688 C 238.878906 192.171875 238.871094 192.164062 238.859375 192.15625 C 238.875 192.167969 238.886719 192.175781 238.90625 192.1875 Z M 238.90625 192.1875 " fill-opacity="1" fill-rule="nonzero"/><path fill="#92b2f9" d="M 243.007812 183.574219 C 242.867188 183.492188 242.679688 183.519531 242.492188 183.628906 C 242.28125 183.75 242.070312 183.976562 241.925781 184.273438 L 238.847656 191.113281 C 238.601562 191.613281 238.664062 192.046875 238.90625 192.1875 L 238.488281 191.945312 C 238.246094 191.804688 238.183594 191.371094 238.429688 190.871094 L 241.507812 184.03125 C 241.652344 183.734375 241.863281 183.507812 242.074219 183.386719 C 242.261719 183.277344 242.449219 183.25 242.589844 183.332031 Z M 243.007812 183.574219 " fill-opacity="1" fill-rule="nonzero"/><path fill="#b0c4ff" d="M 242.492188 183.628906 C 242.707031 183.503906 242.917969 183.488281 243.0625 183.617188 L 246.164062 186.902344 C 246.542969 187.230469 246.207031 188.230469 245.597656 188.578125 L 239.421875 192.136719 C 238.816406 192.484375 238.472656 191.875 238.847656 191.113281 L 241.925781 184.273438 C 242.070312 183.976562 242.28125 183.75 242.492188 183.628906 Z M 242.492188 183.628906 " fill-opacity="1" fill-rule="nonzero"/><path fill="#dde9fe" d="M 242.507812 185.339844 C 242.800781 185.167969 243.035156 185.320312 243.015625 185.667969 L 242.9375 187.488281 C 242.925781 187.753906 242.738281 188.0625 242.515625 188.191406 C 242.289062 188.320312 242.101562 188.226562 242.089844 187.976562 L 242 186.253906 C 241.980469 185.925781 242.210938 185.507812 242.507812 185.339844 Z M 242.507812 185.339844 " fill-opacity="1" fill-rule="nonzero"/><path fill="#dde9fe" d="M 242.515625 188.511719 C 242.726562 188.390625 242.902344 188.488281 242.902344 188.734375 C 242.902344 188.976562 242.730469 189.273438 242.519531 189.394531 C 242.304688 189.519531 242.132812 189.421875 242.132812 189.175781 C 242.132812 188.933594 242.300781 188.636719 242.515625 188.511719 Z M 242.515625 188.511719 " fill-opacity="1" fill-rule="nonzero"/><path fill="#b0c4ff" d="M 245.550781 171.640625 C 245.554688 171.90625 245.363281 172.234375 245.128906 172.371094 L 242.773438 173.738281 C 242.746094 173.75 242.726562 173.773438 242.710938 173.804688 L 242.097656 174.941406 C 242.089844 174.960938 242.078125 174.972656 242.066406 174.976562 C 242.050781 174.988281 242.035156 174.988281 242.027344 174.976562 L 241.738281 174.808594 C 241.730469 174.804688 241.726562 174.792969 241.726562 174.777344 L 241.753906 174.324219 L 241.515625 174.464844 C 241.398438 174.53125 241.289062 174.539062 241.214844 174.492188 L 241.199219 174.484375 L 240.917969 174.320312 C 240.839844 174.277344 240.796875 174.183594 240.792969 174.050781 L 240.789062 171.984375 C 240.789062 171.714844 240.976562 171.390625 241.210938 171.253906 L 244.828125 169.160156 C 244.945312 169.09375 245.054688 169.085938 245.128906 169.132812 L 245.40625 169.292969 C 245.492188 169.332031 245.546875 169.429688 245.546875 169.574219 Z M 245.550781 171.640625 " fill-opacity="1" fill-rule="nonzero"/><path fill="#92b2f9" d="M 242.019531 174.949219 C 242.019531 174.964844 242.023438 174.976562 242.035156 174.980469 L 241.738281 174.808594 C 241.730469 174.804688 241.726562 174.792969 241.726562 174.777344 L 241.769531 174.078125 C 241.769531 174.046875 241.761719 174.027344 241.746094 174.015625 L 242.039062 174.1875 C 242.054688 174.199219 242.0625 174.21875 242.0625 174.25 Z M 242.019531 174.949219 " fill-opacity="1" fill-rule="nonzero"/><path fill="#92b2f9" d="M 245.421875 169.304688 C 245.347656 169.257812 245.238281 169.265625 245.121094 169.332031 L 241.503906 171.425781 C 241.273438 171.5625 241.082031 171.886719 241.082031 172.15625 L 241.089844 174.21875 C 241.089844 174.355469 241.136719 174.449219 241.210938 174.492188 L 240.917969 174.320312 C 240.839844 174.277344 240.796875 174.183594 240.792969 174.050781 L 240.789062 171.984375 C 240.789062 171.714844 240.976562 171.390625 241.210938 171.253906 L 244.828125 169.160156 C 244.945312 169.09375 245.054688 169.085938 245.128906 169.132812 Z M 245.421875 169.304688 " fill-opacity="1" fill-rule="nonzero"/><path fill="#b0c4ff" d="M 245.121094 169.332031 C 245.355469 169.195312 245.546875 169.304688 245.546875 169.574219 L 245.550781 171.640625 C 245.554688 171.90625 245.363281 172.234375 245.128906 172.371094 L 242.769531 173.738281 C 242.746094 173.75 242.726562 173.773438 242.710938 173.804688 L 242.097656 174.941406 C 242.089844 174.960938 242.078125 174.972656 242.066406 174.976562 C 242.042969 174.992188 242.019531 174.984375 242.019531 174.949219 L 242.0625 174.25 C 242.066406 174.191406 242.027344 174.167969 241.980469 174.195312 L 241.511719 174.464844 C 241.28125 174.597656 241.089844 174.492188 241.089844 174.21875 L 241.082031 172.15625 C 241.082031 171.886719 241.273438 171.558594 241.503906 171.425781 Z M 245.121094 169.332031 " fill-opacity="1" fill-rule="nonzero"/><path fill="#5789dc" d="M 244.15625 170.652344 C 244.503906 170.449219 244.785156 170.613281 244.785156 171.011719 C 244.789062 171.410156 244.507812 171.894531 244.160156 172.097656 C 243.890625 172.253906 243.660156 172.1875 243.570312 171.964844 L 242.917969 172.34375 L 242.917969 172.503906 C 242.917969 172.574219 242.871094 172.660156 242.808594 172.695312 C 242.75 172.730469 242.699219 172.703125 242.699219 172.632812 L 242.699219 172.46875 L 242.488281 172.589844 L 242.488281 172.828125 C 242.492188 172.894531 242.441406 172.980469 242.382812 173.015625 C 242.320312 173.050781 242.269531 173.023438 242.269531 172.953125 L 242.269531 172.71875 L 242.070312 172.835938 C 241.949219 172.902344 241.851562 172.847656 241.847656 172.710938 C 241.847656 172.640625 241.871094 172.5625 241.914062 172.496094 C 241.953125 172.425781 242.007812 172.367188 242.066406 172.332031 L 243.570312 171.460938 C 243.65625 171.136719 243.886719 170.808594 244.15625 170.652344 Z M 244.160156 171.695312 C 244.3125 171.605469 244.4375 171.390625 244.4375 171.210938 C 244.4375 171.035156 244.3125 170.960938 244.15625 171.050781 C 244.003906 171.140625 243.875 171.359375 243.878906 171.535156 C 243.878906 171.714844 244.003906 171.785156 244.160156 171.695312 " fill-opacity="1" fill-rule="nonzero"/><path fill="#e7e8ff" d="M 90.796875 323.464844 L 276.769531 323.464844 C 289.839844 323.464844 302.695312 320.109375 314.109375 313.71875 C 352.945312 291.96875 365.238281 241.710938 340.847656 204.386719 L 334.464844 194.617188 C 323.828125 178.335938 321.589844 157.933594 328.441406 139.71875 L 337.011719 116.929688 C 349.421875 83.945312 322.117188 49.65625 287.320312 54.53125 C 276.832031 56 266.152344 53.816406 257.074219 48.335938 L 207.019531 18.125 C 183.710938 4.054688 155.667969 0.207031 129.453125 7.476562 L 107.292969 13.621094 C 64.625 25.453125 40.527344 70.734375 54.457031 112.90625 L 58.949219 126.496094 C 67.195312 151.460938 57.902344 178.886719 36.195312 193.628906 C 11.632812 210.308594 3.386719 242.789062 17 269.234375 L 23.859375 282.554688 C 36.792969 307.683594 62.617188 323.464844 90.796875 323.464844 Z M 90.796875 323.464844 " fill-opacity="1" fill-rule="nonzero"/><path fill="#032068" d="M 340.480469 276.074219 C 340.765625 297.757812 326.066406 316.066406 318.605469 322.476562 L 307.164062 322.476562 C 315.667969 293.546875 329.726562 279.160156 337.605469 274.371094 C 338.917969 273.574219 340.460938 274.53125 340.480469 276.074219 Z M 340.480469 276.074219 " fill-opacity="1" fill-rule="nonzero"/><path fill="#ffffff" d="M 341.691406 204.925781 C 353.410156 249.265625 323.871094 301.777344 311.167969 321.328125 L 285.429688 321.328125 C 296.484375 237.667969 315.019531 217.335938 338.453125 203.597656 C 339.710938 202.859375 341.316406 203.511719 341.691406 204.925781 Z M 341.691406 204.925781 " fill-opacity="1" fill-rule="nonzero"/><path fill="#032068" d="M 339.027344 204.59375 C 339.648438 204.230469 340.410156 204.554688 340.585938 205.222656 C 346.359375 227.066406 341.984375 251.015625 334.511719 272.035156 C 327.175781 292.664062 316.902344 310.332031 310.550781 320.175781 L 286.738281 320.175781 C 292.238281 279.160156 299.554688 253.679688 308.316406 236.773438 C 317.136719 219.753906 327.453125 211.378906 339.027344 204.59375 Z M 342.796875 204.632812 C 342.222656 202.46875 339.777344 201.492188 337.878906 202.605469 C 326.019531 209.554688 315.355469 218.21875 306.285156 235.710938 C 297.25 253.144531 289.832031 279.296875 284.296875 321.175781 L 284.125 322.476562 L 311.789062 322.476562 L 312.125 321.957031 C 318.503906 312.140625 329.117188 294.039062 336.664062 272.8125 C 344.207031 251.601562 348.742188 227.125 342.796875 204.632812 Z M 342.796875 204.632812 " fill-opacity="1" fill-rule="evenodd"/><path fill="#032068" d="M 300.191406 232.207031 C 310.3125 269.363281 298.726562 307.976562 291.152344 322.476562 L 272.277344 322.476562 C 268.03125 277.195312 285.285156 244.261719 296.632812 231.320312 C 297.75 230.042969 299.742188 230.5625 300.191406 232.207031 Z M 300.191406 232.207031 " fill-opacity="1" fill-rule="nonzero"/><path fill="#032068" d="M 325.667969 236.476562 L 331.828125 219.070312 L 333.980469 219.839844 L 319.878906 259.714844 L 329.144531 256.914062 L 329.800781 259.121094 L 318.925781 262.40625 L 306.101562 298.667969 L 317.644531 294.347656 L 318.441406 296.507812 L 305.097656 301.5 L 297.949219 321.710938 L 295.792969 320.941406 L 310.316406 279.886719 L 304.945312 264.734375 L 307.101562 263.960938 L 311.527344 276.457031 L 324.371094 240.144531 L 320.371094 226.691406 L 322.5625 226.03125 Z M 325.667969 236.476562 " fill-opacity="1" fill-rule="evenodd"/><path fill="#ffffff" d="M 290.539062 261.875 L 293.457031 245.722656 L 295.707031 246.136719 L 289.785156 278.917969 L 297.480469 274.839844 L 298.546875 276.878906 L 289.265625 281.796875 L 284.183594 309.914062 L 290.546875 304.882812 L 291.960938 306.691406 L 283.566406 313.328125 L 281.980469 322.109375 L 279.730469 321.695312 L 283.800781 299.175781 L 277.085938 290.371094 L 278.902344 288.972656 L 284.351562 296.117188 L 290.027344 264.707031 L 284.589844 258.796875 L 286.269531 257.234375 Z M 290.539062 261.875 " fill-opacity="1" fill-rule="evenodd"/><path fill="#ffffff" d="M 310.480469 96.015625 L 313.898438 91.28125 C 314.507812 90.4375 315.839844 90.871094 315.835938 91.914062 L 315.808594 97.617188 C 315.808594 97.964844 315.972656 98.289062 316.253906 98.492188 L 321.308594 102.148438 C 322.121094 102.738281 321.75 104.023438 320.746094 104.082031 L 314.453125 104.464844 C 314.144531 104.480469 313.863281 104.628906 313.675781 104.871094 L 309.40625 110.335938 C 308.773438 111.148438 307.472656 110.683594 307.496094 109.652344 L 307.640625 103.152344 C 307.648438 102.835938 307.515625 102.535156 307.277344 102.324219 L 301.960938 97.664062 C 301.179688 96.980469 301.738281 95.695312 302.769531 95.792969 L 309.507812 96.453125 C 309.886719 96.492188 310.257812 96.324219 310.480469 96.015625 Z M 310.480469 96.015625 " fill-opacity="1" fill-rule="nonzero"/><path fill="#f4ad5e" d="M 345.128906 159.230469 L 346.785156 158.324219 C 347.695312 157.824219 348.710938 158.789062 348.261719 159.726562 L 347.46875 161.378906 C 347.320312 161.6875 347.328125 162.050781 347.492188 162.355469 L 348.589844 164.363281 C 349.074219 165.246094 348.183594 166.246094 347.253906 165.867188 L 345.070312 164.984375 C 344.785156 164.871094 344.464844 164.882812 344.191406 165.019531 L 341.835938 166.199219 C 340.917969 166.660156 339.941406 165.679688 340.40625 164.757812 L 341.46875 162.644531 C 341.613281 162.359375 341.621094 162.027344 341.496094 161.738281 L 340.441406 159.289062 C 340.027344 158.332031 341.082031 157.410156 341.972656 157.949219 L 344.066406 159.207031 C 344.390625 159.40625 344.796875 159.414062 345.128906 159.230469 Z M 345.128906 159.230469 " fill-opacity="1" fill-rule="nonzero"/><path fill="#ffffff" d="M 42.984375 84.761719 C 42.984375 99.46875 54.898438 111.394531 69.59375 111.394531 C 74.667969 111.394531 79.410156 109.972656 83.445312 107.503906 L 91.457031 110.347656 C 92.738281 110.804688 94.023438 109.667969 93.730469 108.335938 L 91.777344 99.472656 C 94.570312 95.257812 96.199219 90.199219 96.199219 84.761719 C 96.199219 70.054688 84.285156 58.128906 69.59375 58.128906 C 54.898438 58.128906 42.984375 70.054688 42.984375 84.761719 Z M 42.984375 84.761719 " fill-opacity="1" fill-rule="nonzero"/><path fill="#032068" d="M 69.59375 58.710938 C 55.214844 58.710938 43.5625 70.375 43.5625 84.761719 C 43.5625 99.152344 55.214844 110.816406 69.59375 110.816406 C 74.558594 110.816406 79.195312 109.425781 83.144531 107.011719 L 83.378906 106.867188 L 91.648438 109.800781 C 92.503906 110.105469 93.359375 109.347656 93.164062 108.460938 L 91.160156 99.359375 L 91.292969 99.152344 C 94.027344 95.03125 95.621094 90.082031 95.621094 84.761719 C 95.621094 70.375 83.96875 58.710938 69.59375 58.710938 Z M 42.40625 84.761719 C 42.40625 69.734375 54.578125 57.550781 69.59375 57.550781 C 84.605469 57.550781 96.777344 69.734375 96.777344 84.761719 C 96.777344 90.230469 95.167969 95.320312 92.394531 99.585938 L 94.296875 108.210938 C 94.6875 109.988281 92.972656 111.5 91.261719 110.894531 L 83.511719 108.140625 C 79.4375 110.574219 74.675781 111.972656 69.59375 111.972656 C 54.578125 111.972656 42.40625 99.789062 42.40625 84.761719 Z M 42.40625 84.761719 " fill-opacity="1" fill-rule="evenodd"/><path fill="#f4ad5e" d="M 66.085938 92.238281 C 65.765625 92.238281 65.507812 91.976562 65.511719 91.65625 C 65.558594 89.699219 65.839844 88.117188 66.355469 86.910156 C 66.921875 85.589844 67.957031 84.292969 69.453125 83.019531 C 70.96875 81.730469 71.976562 80.6875 72.476562 79.890625 C 72.976562 79.078125 73.226562 78.226562 73.226562 77.335938 C 73.226562 74.644531 71.929688 73.300781 69.328125 73.300781 C 68.097656 73.300781 67.105469 73.664062 66.355469 74.398438 C 65.734375 75.003906 65.363281 75.8125 65.246094 76.820312 C 65.210938 77.132812 64.957031 77.382812 64.644531 77.382812 L 58.546875 77.382812 C 58.222656 77.382812 57.960938 77.121094 57.980469 76.796875 C 58.132812 74.035156 59.148438 71.851562 61.035156 70.242188 C 63.066406 68.523438 65.832031 67.664062 69.328125 67.664062 C 72.859375 67.664062 75.601562 68.484375 77.550781 70.125 C 79.5 71.746094 80.472656 74.046875 80.472656 77.023438 C 80.472656 78.378906 80.15625 79.660156 79.523438 80.871094 C 78.890625 82.0625 77.785156 83.390625 76.203125 84.855469 L 74.175781 86.695312 C 72.910156 87.859375 72.1875 89.21875 72.003906 90.78125 L 71.941406 91.695312 C 71.917969 92 71.667969 92.238281 71.363281 92.238281 Z M 64.78125 99.566406 C 64.78125 98.5 65.15625 97.625 65.90625 96.941406 C 66.671875 96.242188 67.648438 95.890625 68.828125 95.890625 C 70.011719 95.890625 70.980469 96.242188 71.726562 96.941406 C 72.496094 97.625 72.878906 98.5 72.878906 99.566406 C 72.878906 100.617188 72.503906 101.484375 71.753906 102.171875 C 71.019531 102.855469 70.046875 103.195312 68.828125 103.195312 C 67.613281 103.195312 66.632812 102.855469 65.882812 102.171875 C 65.148438 101.484375 64.78125 100.617188 64.78125 99.566406 Z M 64.78125 99.566406 " fill-opacity="1" fill-rule="nonzero"/><path fill="#ffffff" d="M 125.765625 47.296875 C 125.765625 40.761719 131.058594 35.460938 137.589844 35.460938 L 272.128906 35.460938 C 278.660156 35.460938 283.953125 40.761719 283.953125 47.296875 L 283.953125 310.601562 C 283.953125 317.140625 278.660156 322.4375 272.128906 322.4375 L 137.589844 322.4375 C 131.058594 322.4375 125.765625 317.140625 125.765625 310.601562 Z M 125.765625 47.296875 " fill-opacity="1" fill-rule="nonzero"/><path fill="#032068" d="M 124.777344 47.296875 C 124.777344 40.214844 130.515625 34.476562 137.589844 34.476562 L 272.128906 34.476562 C 279.203125 34.476562 284.941406 40.214844 284.941406 47.296875 L 284.941406 310.601562 C 284.941406 317.683594 279.203125 323.425781 272.128906 323.425781 L 137.589844 323.425781 C 130.515625 323.425781 124.777344 317.683594 124.777344 310.601562 Z M 137.589844 36.449219 C 131.601562 36.449219 126.75 41.304688 126.75 47.296875 L 126.75 310.601562 C 126.75 316.59375 131.601562 321.453125 137.589844 321.453125 L 272.128906 321.453125 C 278.113281 321.453125 282.96875 316.59375 282.96875 310.601562 L 282.96875 47.296875 C 282.96875 41.304688 278.113281 36.449219 272.128906 36.449219 Z M 137.589844 36.449219 " fill-opacity="1" fill-rule="evenodd"/><path fill="#e7e8ff" d="M 253.878906 140.984375 C 253.878906 168.222656 231.816406 190.304688 204.601562 190.304688 C 177.390625 190.304688 155.328125 168.222656 155.328125 140.984375 C 155.328125 113.746094 177.390625 91.667969 204.601562 91.667969 C 231.816406 91.667969 253.878906 113.746094 253.878906 140.984375 Z M 253.878906 140.984375 " fill-opacity="1" fill-rule="nonzero"/><path fill="#ffffff" d="M 274.574219 107.449219 C 274.574219 119.980469 264.425781 130.136719 251.90625 130.136719 C 239.390625 130.136719 229.242188 119.980469 229.242188 107.449219 C 229.242188 94.917969 239.390625 84.761719 251.90625 84.761719 C 264.425781 84.761719 274.574219 94.917969 274.574219 107.449219 Z M 274.574219 107.449219 " fill-opacity="1" fill-rule="nonzero"/><path fill="#032068" d="M 251.90625 85.75 C 239.933594 85.75 230.226562 95.464844 230.226562 107.449219 C 230.226562 119.433594 239.933594 129.148438 251.90625 129.148438 C 263.878906 129.148438 273.585938 119.433594 273.585938 107.449219 C 273.585938 95.464844 263.878906 85.75 251.90625 85.75 Z M 228.253906 107.449219 C 228.253906 94.375 238.84375 83.777344 251.90625 83.777344 C 264.96875 83.777344 275.558594 94.375 275.558594 107.449219 C 275.558594 120.523438 264.96875 131.121094 251.90625 131.121094 C 238.84375 131.121094 228.253906 120.523438 228.253906 107.449219 Z M 228.253906 107.449219 " fill-opacity="1" fill-rule="evenodd"/><path fill="#f4ad5e" d="M 245.746094 106.957031 L 239.09375 113.613281 L 245.746094 120.273438 L 252.398438 113.613281 L 259.050781 120.273438 L 265.703125 113.613281 L 259.050781 106.957031 L 265.703125 100.296875 L 259.050781 93.640625 L 252.398438 100.296875 L 245.746094 93.640625 L 239.09375 100.296875 Z M 245.746094 106.957031 " fill-opacity="1" fill-rule="evenodd"/><path fill="#032068" d="M 173.40625 45.082031 L 168.277344 35.460938 L 241.441406 35.460938 L 235.414062 45.515625 C 233.632812 48.488281 230.425781 50.304688 226.960938 50.304688 L 182.101562 50.304688 C 178.460938 50.304688 175.117188 48.296875 173.40625 45.082031 Z M 173.40625 45.082031 " fill-opacity="1" fill-rule="nonzero"/><path fill="#032068" d="M 282.015625 41.398438 L 126.695312 41.398438 C 131.835938 36.253906 136.746094 35.296875 138.558594 35.460938 L 270.148438 35.460938 C 276.476562 35.460938 280.695312 39.417969 282.015625 41.398438 Z M 282.015625 41.398438 " fill-opacity="1" fill-rule="nonzero"/><path fill="#032068" d="M 281.894531 316.8125 L 127.734375 316.8125 C 133.078125 322.039062 136.164062 323.011719 138.050781 322.84375 L 271.582031 322.84375 C 278.15625 322.84375 280.523438 318.824219 281.894531 316.8125 Z M 281.894531 316.8125 " fill-opacity="1" fill-rule="nonzero"/><path fill="#f4ad5e" d="M 148.429688 72.925781 C 148.429688 71.835938 149.3125 70.953125 150.402344 70.953125 L 202.882812 70.953125 C 203.972656 70.953125 204.855469 71.835938 204.855469 72.925781 L 204.855469 75.03125 C 204.855469 76.121094 203.972656 77.003906 202.882812 77.003906 L 150.402344 77.003906 C 149.3125 77.003906 148.429688 76.121094 148.429688 75.03125 Z M 148.429688 72.925781 " fill-opacity="1" fill-rule="nonzero"/><path fill="#032068" d="M 148.429688 206.085938 C 148.429688 204.996094 149.3125 204.113281 150.402344 204.113281 L 202.882812 204.113281 C 203.972656 204.113281 204.855469 204.996094 204.855469 206.085938 L 204.855469 208.191406 C 204.855469 209.28125 203.972656 210.164062 202.882812 210.164062 L 150.402344 210.164062 C 149.3125 210.164062 148.429688 209.28125 148.429688 208.191406 Z M 148.429688 206.085938 " fill-opacity="1" fill-rule="nonzero"/><path fill="#032068" d="M 148.429688 258.363281 C 148.429688 257.273438 149.3125 256.390625 150.402344 256.390625 L 181.9375 256.390625 C 183.027344 256.390625 183.910156 257.273438 183.910156 258.363281 L 183.910156 260.335938 C 183.910156 261.425781 183.027344 262.308594 181.9375 262.308594 L 150.402344 262.308594 C 149.3125 262.308594 148.429688 261.425781 148.429688 260.335938 Z M 148.429688 258.363281 " fill-opacity="1" fill-rule="nonzero"/><path fill="#e7e8ff" d="M 147.445312 220.882812 C 147.445312 219.246094 148.769531 217.921875 150.402344 217.921875 L 255.847656 217.921875 C 257.480469 217.921875 258.804688 219.246094 258.804688 220.882812 L 258.804688 240.609375 C 258.804688 242.242188 257.480469 243.566406 255.847656 243.566406 L 150.402344 243.566406 C 148.769531 243.566406 147.445312 242.242188 147.445312 240.609375 Z M 150.402344 219.894531 C 149.855469 219.894531 149.414062 220.335938 149.414062 220.882812 L 149.414062 240.609375 C 149.414062 241.152344 149.855469 241.59375 150.402344 241.59375 L 255.847656 241.59375 C 256.390625 241.59375 256.832031 241.152344 256.832031 240.609375 L 256.832031 220.882812 C 256.832031 220.335938 256.390625 219.894531 255.847656 219.894531 Z M 150.402344 219.894531 " fill-opacity="1" fill-rule="evenodd"/><path fill="#e7e8ff" d="M 147.445312 272.171875 C 147.445312 270.539062 148.769531 269.214844 150.402344 269.214844 L 255.847656 269.214844 C 257.480469 269.214844 258.804688 270.539062 258.804688 272.171875 L 258.804688 291.898438 C 258.804688 293.535156 257.480469 294.859375 255.847656 294.859375 L 150.402344 294.859375 C 148.769531 294.859375 147.445312 293.535156 147.445312 291.898438 Z M 150.402344 271.1875 C 149.855469 271.1875 149.414062 271.628906 149.414062 272.171875 L 149.414062 291.898438 C 149.414062 292.445312 149.855469 292.886719 150.402344 292.886719 L 255.847656 292.886719 C 256.390625 292.886719 256.832031 292.445312 256.832031 291.898438 L 256.832031 272.171875 C 256.832031 271.628906 256.390625 271.1875 255.847656 271.1875 Z M 150.402344 271.1875 " fill-opacity="1" fill-rule="evenodd"/><path fill="#032068" d="M 270.878906 49.5625 L 272.847656 49.5625 L 272.847656 57.632812 L 270.878906 57.632812 Z M 270.878906 49.5625 " fill-opacity="1" fill-rule="evenodd"/><path fill="#032068" d="M 265.839844 50.570312 L 267.8125 50.570312 L 267.8125 57.632812 L 265.839844 57.632812 Z M 265.839844 50.570312 " fill-opacity="1" fill-rule="evenodd"/><path fill="#032068" d="M 260.804688 52.589844 L 262.773438 52.589844 L 262.773438 57.632812 L 260.804688 57.632812 Z M 260.804688 52.589844 " fill-opacity="1" fill-rule="evenodd"/><path fill="#032068" d="M 255.765625 54.605469 L 257.734375 54.605469 L 257.734375 57.632812 L 255.765625 57.632812 Z M 255.765625 54.605469 " fill-opacity="1" fill-rule="evenodd"/><path fill="#032068" d="M 204.582031 112.050781 C 195.613281 112.050781 188.339844 119.445312 188.339844 128.570312 L 188.339844 139.882812 C 188.339844 141.226562 189.429688 142.3125 190.769531 142.3125 C 192.109375 142.3125 193.199219 141.226562 193.199219 139.882812 L 193.199219 128.261719 C 193.199219 121.867188 198.292969 116.683594 204.582031 116.683594 C 210.867188 116.683594 215.964844 121.867188 215.964844 128.261719 L 215.964844 139.277344 C 215.964844 140.621094 217.050781 141.707031 218.390625 141.707031 C 219.734375 141.707031 220.820312 140.621094 220.820312 139.277344 L 220.820312 128.570312 C 220.820312 119.445312 213.550781 112.050781 204.582031 112.050781 Z M 204.582031 112.050781 " fill-opacity="1" fill-rule="evenodd"/><path fill="#f4ad5e" d="M 183.863281 139.667969 C 183.863281 138.035156 185.183594 136.710938 186.816406 136.710938 L 222.34375 136.710938 C 223.976562 136.710938 225.296875 138.035156 225.296875 139.667969 L 225.296875 166.257812 C 225.296875 167.890625 223.976562 169.21875 222.34375 169.21875 L 186.816406 169.21875 C 185.183594 169.21875 183.863281 167.890625 183.863281 166.257812 Z M 183.863281 139.667969 " fill-opacity="1" fill-rule="nonzero"/><path fill="#ffffff" d="M 207.222656 154.308594 C 208.183594 153.535156 208.800781 152.347656 208.800781 151.019531 C 208.800781 148.6875 206.910156 146.796875 204.582031 146.796875 C 202.253906 146.796875 200.367188 148.6875 200.367188 151.019531 C 200.367188 152.46875 201.09375 153.746094 202.207031 154.507812 L 201.265625 158.460938 C 201.125 159.050781 201.570312 159.617188 202.175781 159.617188 L 207.300781 159.617188 C 207.90625 159.617188 208.351562 159.050781 208.210938 158.460938 Z M 207.222656 154.308594 " fill-opacity="1" fill-rule="evenodd"/><path fill="#032068" d="M 266.355469 227.785156 L 242.382812 227.785156 C 240.894531 227.785156 239.945312 226.199219 240.644531 224.882812 L 252.632812 202.4375 C 253.375 201.046875 255.367188 201.046875 256.109375 202.4375 L 268.097656 224.882812 C 268.796875 226.199219 267.847656 227.785156 266.355469 227.785156 Z M 266.355469 227.785156 " fill-opacity="1" fill-rule="nonzero"/><path fill="#ffffff" d="M 253.273438 219.351562 L 255.429688 219.351562 L 255.769531 210.03125 L 252.933594 210.03125 Z M 255.847656 222.257812 C 255.847656 221.792969 255.710938 221.417969 255.429688 221.125 C 255.144531 220.824219 254.792969 220.675781 254.371094 220.675781 C 253.949219 220.675781 253.597656 220.824219 253.320312 221.125 C 253.035156 221.417969 252.890625 221.792969 252.890625 222.257812 C 252.890625 222.71875 253.035156 223.101562 253.320312 223.398438 C 253.597656 223.695312 253.949219 223.839844 254.371094 223.839844 C 254.792969 223.839844 255.144531 223.695312 255.429688 223.398438 C 255.710938 223.101562 255.847656 222.71875 255.847656 222.257812 Z M 255.847656 222.257812 " fill-opacity="1" fill-rule="nonzero"/><path fill="#f4ad5e" d="M 163.304688 230.296875 C 163.304688 231.683594 162.179688 232.808594 160.792969 232.808594 C 159.40625 232.808594 158.285156 231.683594 158.285156 230.296875 C 158.285156 228.910156 159.40625 227.785156 160.792969 227.785156 C 162.179688 227.785156 163.304688 228.910156 163.304688 230.296875 Z M 163.304688 230.296875 " fill-opacity="1" fill-rule="nonzero"/><path fill="#f4ad5e" d="M 175.347656 230.296875 C 175.347656 231.683594 174.226562 232.808594 172.839844 232.808594 C 171.453125 232.808594 170.332031 231.683594 170.332031 230.296875 C 170.332031 228.910156 171.453125 227.785156 172.839844 227.785156 C 174.226562 227.785156 175.347656 228.910156 175.347656 230.296875 Z M 175.347656 230.296875 " fill-opacity="1" fill-rule="nonzero"/><path fill="#f4ad5e" d="M 187.394531 230.296875 C 187.394531 231.683594 186.269531 232.808594 184.886719 232.808594 C 183.5 232.808594 182.375 231.683594 182.375 230.296875 C 182.375 228.910156 183.5 227.785156 184.886719 227.785156 C 186.269531 227.785156 187.394531 228.910156 187.394531 230.296875 Z M 187.394531 230.296875 " fill-opacity="1" fill-rule="nonzero"/><path fill="#f4ad5e" d="M 199.441406 230.296875 C 199.441406 231.683594 198.316406 232.808594 196.929688 232.808594 C 195.542969 232.808594 194.421875 231.683594 194.421875 230.296875 C 194.421875 228.910156 195.542969 227.785156 196.929688 227.785156 C 198.316406 227.785156 199.441406 228.910156 199.441406 230.296875 Z M 199.441406 230.296875 " fill-opacity="1" fill-rule="nonzero"/><path fill="#f4ad5e" d="M 211.484375 230.296875 C 211.484375 231.683594 210.363281 232.808594 208.976562 232.808594 C 207.589844 232.808594 206.464844 231.683594 206.464844 230.296875 C 206.464844 228.910156 207.589844 227.785156 208.976562 227.785156 C 210.363281 227.785156 211.484375 228.910156 211.484375 230.296875 Z M 211.484375 230.296875 " fill-opacity="1" fill-rule="nonzero"/><path fill="#f4ad5e" d="M 223.53125 230.296875 C 223.53125 231.683594 222.40625 232.808594 221.023438 232.808594 C 219.636719 232.808594 218.511719 231.683594 218.511719 230.296875 C 218.511719 228.910156 219.636719 227.785156 221.023438 227.785156 C 222.40625 227.785156 223.53125 228.910156 223.53125 230.296875 Z M 223.53125 230.296875 " fill-opacity="1" fill-rule="nonzero"/><path fill="#efcb96" d="M 89.859375 134.390625 C 75.882812 144.289062 81.757812 161.882812 84.390625 168.699219 L 83.238281 182.613281 C 84.433594 186.992188 88.765625 195.75 96.542969 195.75 C 104.320312 195.75 107.882812 188.273438 108.695312 184.535156 L 107.480469 173.980469 C 116.59375 170.679688 117.199219 157.484375 116.59375 146.929688 C 115.871094 134.390625 102.167969 125.675781 89.859375 134.390625 Z M 89.859375 134.390625 " fill-opacity="1" fill-rule="nonzero"/><path fill="#032068" d="M 84.832031 165.25 L 83.621094 177.214844 C 83.214844 176.328125 82.289062 173.757812 81.804688 170.566406 C 81.199219 166.582031 71.515625 151.292969 74.539062 139.996094 C 76.960938 130.957031 83.621094 131.355469 86.648438 132.6875 C 88.460938 129.363281 99.359375 118.0625 115.097656 119.394531 C 130.835938 120.722656 132.652344 143.320312 119.9375 146.640625 C 109.769531 149.300781 98.347656 147.75 93.910156 146.640625 C 93.507812 147.527344 92.335938 150.496094 90.882812 155.28125 C 89.066406 161.265625 89.066406 162.59375 88.460938 158.605469 C 87.855469 154.617188 85.4375 147.308594 82.410156 154.617188 C 79.988281 160.464844 83.015625 164.144531 84.832031 165.25 Z M 84.832031 165.25 " fill-opacity="1" fill-rule="nonzero"/><path fill="#032068" d="M 93.621094 173.738281 C 97.785156 176.195312 104.226562 174.761719 106.925781 173.738281 L 107.503906 178.035156 C 101.488281 179.511719 95.742188 175.785156 93.621094 173.738281 Z M 93.621094 173.738281 " fill-opacity="1" fill-rule="nonzero"/><path fill="#f4ad5e" d="M 96.007812 188.375 C 104.722656 188.375 108.945312 183.515625 110.214844 180.613281 C 110.363281 180.277344 110.683594 180.035156 111.050781 180.054688 C 115.863281 180.296875 122.683594 183.21875 124.394531 183.808594 C 124.441406 183.824219 124.480469 183.839844 124.523438 183.863281 C 137.96875 191.097656 150.71875 203.894531 158.710938 250.050781 C 161.296875 269.3125 165.921875 309.503906 163.703125 316.171875 C 161.484375 322.839844 146.132812 323.765625 138.734375 323.394531 L 41.632812 323.394531 C 39.0625 323.394531 39.859375 319.339844 40.941406 316.261719 C 41.1875 315.566406 40.523438 314.800781 39.792969 314.902344 C 35.367188 315.515625 26.925781 314.710938 17.773438 307.835938 C 0.0195312 293.390625 20.550781 235.601562 33.867188 208.375 C 44.328125 186.984375 69.207031 180.636719 80.953125 180.0625 C 81.335938 180.046875 81.660156 180.285156 81.816406 180.632812 C 83.09375 183.539062 87.3125 188.375 96.007812 188.375 Z M 96.007812 188.375 " fill-opacity="1" fill-rule="nonzero"/><path fill="#032068" d="M 37.761719 313.867188 C 31.660156 300.882812 18.738281 288.050781 11.824219 282.210938 C 11.296875 281.761719 10.503906 282.113281 10.484375 282.808594 C 10.316406 288.78125 11.117188 299.707031 15.554688 306.167969 C 20.085938 312.765625 31.011719 314.773438 36.996094 315.03125 C 37.617188 315.058594 38.027344 314.425781 37.761719 313.867188 Z M 37.761719 313.867188 " fill-opacity="1" fill-rule="nonzero"/><path fill="#032068" d="M 94.34375 280.609375 C 69.042969 306.390625 47.921875 314.6875 40.523438 315.613281 L 39.414062 320.617188 C 61.164062 317.058594 85.097656 292.464844 94.34375 280.609375 Z M 94.34375 280.609375 " fill-opacity="1" fill-rule="nonzero"/><path fill="#ffffff" d="M 100.449219 272.308594 L 100.449219 234.664062 C 100.449219 234.242188 100.75 233.886719 101.164062 233.816406 L 119.410156 230.769531 C 119.9375 230.683594 120.414062 231.09375 120.40625 231.628906 L 119.878906 268.269531 C 119.871094 268.664062 119.597656 269.003906 119.210938 269.089844 L 101.496094 273.144531 C 100.960938 273.269531 100.449219 272.859375 100.449219 272.308594 Z M 100.449219 272.308594 " fill-opacity="1" fill-rule="nonzero"/><path fill="#032068" d="M 119.269531 229.925781 C 120.324219 229.75 121.28125 230.570312 121.265625 231.640625 L 120.734375 268.28125 C 120.722656 269.070312 120.171875 269.75 119.402344 269.929688 L 101.6875 273.984375 C 100.613281 274.230469 99.589844 273.414062 99.589844 272.308594 L 99.589844 234.664062 C 99.589844 233.824219 100.195312 233.109375 101.023438 232.96875 Z M 119.550781 231.617188 L 101.304688 234.664062 L 101.304688 272.308594 L 119.019531 268.253906 Z M 119.550781 231.617188 " fill-opacity="1" fill-rule="evenodd"/><path fill="#032068" d="M 52.730469 261.164062 C 51.839844 262.941406 42.371094 267.460938 37.75 269.496094 C 42.632812 268.164062 71.226562 258.199219 84.910156 253.382812 C 81.027344 253.382812 58.277344 260.050781 57.722656 258.941406 C 57.277344 258.050781 59.019531 246.714844 59.941406 241.160156 C 57.90625 247.085938 53.617188 259.382812 52.730469 261.164062 Z M 52.730469 261.164062 " fill-opacity="1" fill-rule="nonzero"/><path fill="#efcb96" d="M 93.234375 251.160156 C 91.015625 254.71875 88.609375 256.347656 87.6875 256.71875 L 91.570312 269.496094 C 96.5625 266.71875 104.886719 267.273438 110.988281 263.941406 C 117.09375 260.605469 115.984375 244.492188 112.65625 245.605469 C 109.992188 246.492188 103.40625 249.308594 100.449219 250.605469 L 100.449219 242.824219 C 96.5625 244.492188 96.007812 246.714844 93.234375 251.160156 Z M 93.234375 251.160156 " fill-opacity="1" fill-rule="nonzero"/><path fill="#f4ad5e" d="M 128.308594 181.902344 C 123.980469 181.902344 113.398438 192.019531 113.398438 196.835938 C 112.433594 200.6875 137.925781 255.601562 156.6875 265.714844 C 175.445312 275.828125 190.839844 263.304688 189.394531 244.039062 C 187.878906 223.808594 133.332031 181.902344 128.308594 181.902344 Z M 128.308594 181.902344 " fill-opacity="1" fill-rule="nonzero"/><path fill="#032068" d="M 189.394531 242.59375 C 171.695312 246.832031 164.0625 261.378906 162.457031 268.125 C 166.628906 269.246094 174.484375 272.941406 183.621094 263.789062 C 190.175781 257.226562 190.355469 247.089844 189.394531 242.59375 Z M 189.394531 242.59375 " fill-opacity="1" fill-rule="nonzero"/><path fill="#032068" d="M 135.523438 242.113281 C 147.066406 261.378906 157.328125 267.160156 161.015625 267.640625 L 161.976562 273.902344 C 159.089844 273.421875 152.164062 269.085938 141.773438 255.601562 C 127.152344 237.101562 116.28125 208.71875 113.394531 196.835938 C 115.800781 205.023438 121.09375 218.027344 135.523438 242.113281 Z M 135.523438 242.113281 " fill-opacity="1" fill-rule="nonzero"/><path fill="#efcb96" d="M 114.359375 167.53125 C 115.03125 168.5625 121.3125 178.820312 123.980469 183.820312 C 121.453125 186.394531 116.144531 191.539062 115.136719 191.539062 C 113.871094 191.539062 106.710938 189.394531 103.765625 185.535156 C 100.816406 181.679688 105.449219 176.960938 105.449219 176.535156 C 105.449219 176.105469 97.867188 172.675781 96.605469 170.960938 C 95.339844 169.246094 97.042969 167.453125 98.964844 167.933594 C 100.066406 167.933594 107.144531 171.789062 109.550781 172.75 C 110.558594 172.410156 111.953125 171.308594 114.359375 167.53125 Z M 114.359375 167.53125 " fill-opacity="1" fill-rule="nonzero"/><path fill="#032068" d="M 96.082031 170.34375 C 96.464844 173.039062 100.089844 175.320312 101.851562 176.125 L 103.296875 175.160156 C 102.65625 174.839844 100.890625 173.90625 98.964844 172.75 C 97.042969 171.59375 96.242188 170.664062 96.082031 170.34375 Z M 96.082031 170.34375 " fill-opacity="1" fill-rule="nonzero"/><path fill="#032068" d="M 102.816406 187.203125 C 99.351562 183.734375 101.050781 179.65625 102.332031 178.050781 L 104.738281 177.566406 C 101.851562 182.386719 103.617188 185.597656 104.738281 186.238281 Z M 102.816406 187.203125 " fill-opacity="1" fill-rule="nonzero"/></svg>