<?xml version="1.0" encoding="utf-8"?>
<svg xmlns="http://www.w3.org/2000/svg" viewBox="0 0 24 24" width="480" height="480">
  <path d="M12 0C10 0 6 4 1 5C1.601563 6.601563 4 8.8125 4 8.8125C4 8.8125 5.601563 6.8125 12 6.8125C18.398438 6.8125 20 8.8125 20 8.8125C20 8.8125 22.398438 6.5 23 5C18 4 14 0 12 0 Z M 12 2.6875C13 2.6875 13.6875 3.5 13.6875 3.5C13.6875 4.398438 12.898438 6 12 6C11.101563 6 10.3125 4.398438 10.3125 3.5C10.3125 3.5 11 2.6875 12 2.6875 Z M 12 8C6.300781 8 4 10 4 10L4 12.25C3.761719 12.308594 3.703125 12.261719 3.40625 12.4375C2.730469 12.832031 2 13.734375 2 15C2 16.265625 2.730469 17.167969 3.40625 17.5625C3.75 17.765625 3.839844 17.726563 4.09375 17.78125C5.59375 20.914063 8.535156 23.554688 11.875 24L12.125 24C15.464844 23.554688 18.40625 20.914063 19.90625 17.78125C20.160156 17.726563 20.25 17.765625 20.59375 17.5625C21.269531 17.167969 22 16.265625 22 15C22 13.734375 21.269531 12.832031 20.59375 12.4375C20.296875 12.261719 20.238281 12.308594 20 12.25L20 10C20 10 17.699219 8 12 8 Z M 6 11.75C7.214844 12.40625 9.074219 13 12 13C14.925781 13 16.785156 12.40625 18 11.75L18 13.21875L18.75 13.96875L19.15625 14C19.15625 14 19.371094 14.027344 19.59375 14.15625C19.816406 14.285156 20 14.367188 20 15C20 15.632813 19.816406 15.714844 19.59375 15.84375C19.371094 15.972656 19.15625 16 19.15625 16L18.53125 16.03125L18.28125 16.59375C17.132813 19.246094 14.488281 21.574219 12 21.96875C9.511719 21.574219 6.867188 19.246094 5.71875 16.59375L5.46875 16.03125L4.84375 16C4.84375 16 4.628906 15.972656 4.40625 15.84375C4.183594 15.714844 4 15.632813 4 15C4 14.367188 4.183594 14.285156 4.40625 14.15625C4.628906 14.027344 4.84375 14 4.84375 14L5.25 13.96875L6 13.21875 Z M 8.5 13C6.300781 13 6 13.113281 6 14.3125C6 15.710938 7.101563 17 8.5 17C9.742188 17 10.726563 16.285156 10.9375 14.9375C11.234375 14.976563 11.566406 15 12 15C12.433594 15 12.765625 14.976563 13.0625 14.9375C13.273438 16.285156 14.257813 17 15.5 17C16.898438 17 18 15.710938 18 14.3125C18 13.113281 17.699219 13 15.5 13C13.945313 13 13.203125 13.078125 13.03125 13.9375C12.761719 13.972656 12.441406 14 12 14C11.558594 14 11.238281 13.972656 10.96875 13.9375C10.796875 13.078125 10.054688 13 8.5 13Z" />
</svg>