<?xml version="1.0" encoding="utf-8"?>
<svg xmlns="http://www.w3.org/2000/svg" viewBox="0 0 26 26" width="208" height="208">
  <path d="M19 0C18.449219 0 18 0.449219 18 1L18 25C18 25.550781 18.449219 26 19 26L25 26C25.550781 26 26 25.550781 26 25L26 1C26 0.449219 25.550781 0 25 0 Z M 10 8C9.449219 8 9 8.449219 9 9L9 25C9 25.550781 9.449219 26 10 26L16 26C16.550781 26 17 25.550781 17 25L17 9C17 8.449219 16.550781 8 16 8 Z M 11 10L15 10L15 24L11 24 Z M 1 16C0.449219 16 0 16.449219 0 17L0 25C0 25.550781 0.449219 26 1 26L7 26C7.550781 26 8 25.550781 8 25L8 17C8 16.449219 7.550781 16 7 16Z" />
</svg>