<?xml version="1.0" encoding="utf-8"?>
<svg xmlns="http://www.w3.org/2000/svg" viewBox="0 0 24 24" width="480" height="480">
  <path d="M12.59375 0C6.816406 0 2 4.25 2 10L2 12.71875C1.5 13.207031 1 13.949219 1 15C1 17.101563 3 18 3 18L4 18L4 10C4 5.351563 7.773438 2 12.59375 2C16.699219 2 20 5.714844 20 10L20 18L21 18C21 18 23 17.101563 23 15C23 13.949219 22.5 13.207031 22 12.71875L22 10C22 4.6875 17.890625 0 12.59375 0 Z M 6.5 11C5.398438 11 5 11.1875 5 11.1875L5 18.8125C5 18.8125 5.398438 19 6.5 19C7.601563 19 8 18.8125 8 18.8125L8 11.1875C8 11.1875 7.601563 11 6.5 11 Z M 17.5 11C16.398438 11 16 11.1875 16 11.1875L16 18.8125C16 18.8125 16.398438 19 17.5 19C18.601563 19 19 18.8125 19 18.8125L19 11.1875C19 11.1875 18.601563 11 17.5 11 Z M 20 19L20 21.5C20 22.328125 19.328125 23 18.5 23L14 23L14 22L10 22L10 24L18.5 24C19.871094 24 21 22.871094 21 21.5L21 19Z" fill="#FFFFFF" />
</svg>